<?xml version="1.0" encoding="UTF-8"?>
<svg xmlns="http://www.w3.org/2000/svg" xmlns:xlink="http://www.w3.org/1999/xlink" width="px" height="px" viewBox="0 0 336 335" version="1.1">
<defs>
<linearGradient id="linear0" gradientUnits="userSpaceOnUse" x1="-1211.56439" y1="1173.41747" x2="-1232.05939" y2="1233.96496" gradientTransform="matrix(0.78125,0,0,0.782418,1061.50423,-663.436343)">
<stop offset="0" style="stop-color:rgb(6.666667%,29.019608%,54.509804%);stop-opacity:1;"/>
<stop offset="1" style="stop-color:rgb(2.352941%,41.176471%,73.72549%);stop-opacity:1;"/>
</linearGradient>
<linearGradient id="linear1" gradientUnits="userSpaceOnUse" x1="-1205.16237" y1="1201.63341" x2="-1209.90309" y2="1203.23644" gradientTransform="matrix(0.78125,0,0,0.782418,1061.50423,-663.436343)">
<stop offset="0" style="stop-color:rgb(0%,0%,0%);stop-opacity:0.301961;"/>
<stop offset="0.071" style="stop-color:rgb(0%,0%,0%);stop-opacity:0.2;"/>
<stop offset="0.321" style="stop-color:rgb(0%,0%,0%);stop-opacity:0.101961;"/>
<stop offset="0.623" style="stop-color:rgb(0%,0%,0%);stop-opacity:0.0509804;"/>
<stop offset="1" style="stop-color:rgb(0%,0%,0%);stop-opacity:0;"/>
</linearGradient>
<linearGradient id="linear2" gradientUnits="userSpaceOnUse" x1="-1207.62209" y1="1171.59629" x2="-1185.12454" y2="1231.53367" gradientTransform="matrix(0.78125,0,0,0.782418,1061.50423,-663.436343)">
<stop offset="0" style="stop-color:rgb(23.529412%,79.607843%,95.686275%);stop-opacity:1;"/>
<stop offset="1" style="stop-color:rgb(15.686275%,57.254902%,87.45098%);stop-opacity:1;"/>
</linearGradient>
</defs>
<g id="surface1">
<path style=" stroke:none;fill-rule:nonzero;fill:rgb(94.901961%,94.901961%,94.901961%);fill-opacity:1;" d="M 122.152344 44.535156 C 121.320312 43.128906 117.722656 44.632812 117.058594 43.359375 C 116.402344 42.089844 119.742188 40.152344 121.652344 35.734375 C 121.996094 34.9375 124.167969 29.914062 122.5625 28.363281 C 119.515625 25.425781 105.582031 37.550781 100.703125 33.582031 C 99.632812 32.710938 98.886719 30.972656 95.648438 28.152344 C 94.359375 27.027344 93.578125 26.523438 92.824219 26.710938 C 91.753906 26.976562 91.671875 28.410156 90.523438 31.230469 C 88.804688 35.460938 87.785156 35.207031 86.78125 38.578125 C 86.039062 41.085938 86.207031 42.539062 85.332031 42.824219 C 84.09375 43.226562 82.953125 40.570312 81.382812 40.808594 C 79.78125 41.050781 78.808594 44.144531 78.503906 46.457031 C 77.929688 50.804688 79.523438 53.671875 80.40625 56.6875 C 81.367188 59.964844 81.9375 64.949219 79.71875 72.003906 L 57.777344 133.917969 C 62.621094 121.214844 76.648438 86.386719 82.542969 73.445312 C 84.242188 69.710938 86.121094 65.921875 89.980469 64.425781 C 93.691406 62.984375 98.792969 63.84375 105.296875 62.277344 C 106.054688 62.09375 108.160156 61.554688 108.425781 60.316406 C 108.644531 59.289062 107.40625 58.714844 107.597656 57.753906 C 107.851562 56.464844 110.289062 56.449219 113.285156 54.960938 C 115.398438 53.914062 116.714844 52.664062 117.84375 51.59375 C 118.1875 51.269531 123.257812 46.402344 122.152344 44.535156 Z M 122.152344 44.535156 "/>
<path style=" stroke:none;fill-rule:nonzero;fill:rgb(94.901961%,94.901961%,94.901961%);fill-opacity:1;" d="M 35.824219 77.128906 C 34.898438 77.128906 34.597656 79.332031 33.78125 79.289062 C 32.96875 79.246094 32.984375 77.046875 31.371094 74.832031 C 31.078125 74.433594 29.242188 71.917969 28.019531 72.257812 C 25.703125 72.910156 27.621094 83.257812 24.269531 84.507812 C 23.535156 84.785156 22.46875 84.648438 20.148438 85.425781 C 19.226562 85.738281 18.753906 85.972656 18.628906 86.398438 C 18.453125 87 19.128906 87.457031 20.179688 88.835938 C 21.757812 90.902344 21.339844 91.328125 22.703125 92.792969 C 23.714844 93.882812 24.476562 94.21875 24.363281 94.730469 C 24.203125 95.457031 22.574219 95.25 22.234375 96.089844 C 21.894531 96.949219 23.128906 98.316406 24.175781 99.136719 C 26.140625 100.671875 28.003906 100.714844 29.738281 101.152344 C 31.621094 101.625 34.226562 102.785156 37.046875 105.910156 L 61.058594 134.558594 C 56.230469 128.511719 43.207031 111.570312 38.566406 104.9375 C 37.226562 103.023438 35.910156 101.007812 36.292969 98.679688 C 36.65625 96.4375 38.550781 94.179688 39.65625 90.53125 C 39.785156 90.105469 40.132812 88.914062 39.601562 88.425781 C 39.160156 88.023438 38.523438 88.464844 38.105469 88.09375 C 37.546875 87.597656 38.242188 86.394531 38.378906 84.492188 C 38.472656 83.152344 38.242188 82.144531 38.042969 81.28125 C 37.984375 81.019531 37.0625 77.121094 35.824219 77.128906 Z M 35.824219 77.128906 "/>
<path style=" stroke:none;fill-rule:nonzero;fill:rgb(94.901961%,94.901961%,94.901961%);fill-opacity:1;" d="M 54.34375 81.289062 L 53.78125 76.289062 L 54.039062 75.910156 C 55.21875 74.160156 55.824219 72.449219 55.832031 70.824219 C 55.832031 70.566406 55.820312 70.304688 55.808594 70.042969 C 55.757812 69 55.699219 67.703125 56.375 66.191406 C 56.753906 65.351562 57.816406 63.398438 59.414062 63.640625 C 59.84375 63.703125 60.167969 63.898438 60.417969 64.132812 C 60.453125 64.074219 60.488281 64.015625 60.53125 63.953125 C 61.027344 63.191406 61.421875 62.867188 61.800781 62.554688 C 62.09375 62.3125 62.394531 62.0625 62.867188 61.472656 C 63.074219 61.214844 63.234375 60.988281 63.371094 60.796875 C 63.785156 60.222656 64.324219 59.53125 65.277344 59.546875 C 66.292969 59.59375 66.828125 60.4375 67.179688 60.992188 C 67.808594 61.988281 68.09375 62.703125 68.285156 63.179688 C 68.351562 63.355469 68.433594 63.550781 68.472656 63.609375 C 68.800781 64.09375 71.464844 63.640625 72.46875 63.476562 C 74.722656 63.101562 76.671875 62.773438 77.476562 64.199219 C 78.054688 65.21875 77.625 66.566406 76.167969 68.308594 C 75.714844 68.851562 75.230469 69.265625 74.800781 69.589844 C 75.15625 69.800781 75.476562 70.128906 75.605469 70.640625 C 75.90625 71.851562 74.867188 73.066406 72.511719 74.253906 C 71.929688 74.550781 71.140625 74.945312 70.039062 75.136719 C 69.519531 75.226562 69.050781 75.246094 68.652344 75.261719 C 68.644531 75.492188 68.589844 75.742188 68.449219 76 C 68.035156 76.761719 67.175781 77.125 65.878906 77.035156 C 64.449219 76.960938 63.277344 76.6875 62.238281 76.449219 C 61.335938 76.242188 60.554688 76.066406 59.941406 76.105469 C 58.808594 76.199219 57.933594 77.109375 56.90625 78.289062 Z M 54.34375 81.289062 "/>
<path style=" stroke:none;fill-rule:nonzero;fill:rgb(94.901961%,94.901961%,94.901961%);fill-opacity:1;" d="M 56.9375 51.523438 L 52.25 53.332031 L 51.820312 53.183594 C 49.824219 52.480469 48.019531 52.332031 46.449219 52.738281 C 46.199219 52.800781 45.953125 52.878906 45.703125 52.957031 C 44.707031 53.269531 43.46875 53.65625 41.839844 53.386719 C 40.929688 53.230469 38.777344 52.695312 38.605469 51.085938 C 38.554688 50.65625 38.660156 50.289062 38.824219 49.992188 C 38.757812 49.972656 38.691406 49.949219 38.621094 49.925781 C 37.761719 49.636719 37.347656 49.339844 36.945312 49.050781 C 36.640625 48.828125 36.324219 48.601562 35.632812 48.292969 C 35.332031 48.15625 35.074219 48.058594 34.855469 47.976562 C 34.191406 47.722656 33.390625 47.371094 33.160156 46.445312 C 32.949219 45.449219 33.628906 44.71875 34.078125 44.234375 C 34.878906 43.375 35.496094 42.914062 35.910156 42.609375 C 36.058594 42.5 36.226562 42.375 36.277344 42.320312 C 36.660156 41.878906 35.546875 39.414062 35.132812 38.484375 C 34.199219 36.394531 33.390625 34.585938 34.5625 33.445312 C 35.398438 32.628906 36.808594 32.703125 38.863281 33.671875 C 39.503906 33.976562 40.023438 34.339844 40.445312 34.671875 C 40.5625 34.273438 40.792969 33.882812 41.257812 33.628906 C 42.351562 33.027344 43.785156 33.726562 45.53125 35.707031 C 45.964844 36.195312 46.546875 36.859375 47.011719 37.878906 C 47.230469 38.359375 47.367188 38.804688 47.480469 39.191406 C 47.707031 39.140625 47.964844 39.128906 48.25 39.199219 C 49.089844 39.40625 49.65625 40.148438 49.902344 41.425781 C 50.191406 42.828125 50.226562 44.035156 50.257812 45.101562 C 50.289062 46.03125 50.316406 46.832031 50.511719 47.414062 C 50.886719 48.488281 51.988281 49.105469 53.386719 49.800781 Z M 56.9375 51.523438 "/>
<path style=" stroke:none;fill-rule:nonzero;fill:rgb(94.901961%,94.901961%,94.901961%);fill-opacity:1;" d="M 54.34375 36.796875 L 53.78125 31.796875 L 54.039062 31.417969 C 55.21875 29.664062 55.824219 27.953125 55.832031 26.328125 C 55.832031 26.070312 55.820312 25.8125 55.808594 25.550781 C 55.757812 24.507812 55.699219 23.210938 56.375 21.699219 C 56.753906 20.855469 57.816406 18.90625 59.414062 19.148438 C 59.84375 19.207031 60.167969 19.40625 60.417969 19.636719 C 60.453125 19.578125 60.488281 19.523438 60.53125 19.460938 C 61.027344 18.699219 61.421875 18.371094 61.800781 18.058594 C 62.09375 17.816406 62.394531 17.570312 62.867188 16.980469 C 63.074219 16.722656 63.234375 16.496094 63.371094 16.304688 C 63.785156 15.726562 64.324219 15.039062 65.277344 15.050781 C 66.292969 15.097656 66.828125 15.941406 67.179688 16.5 C 67.808594 17.492188 68.09375 18.210938 68.285156 18.6875 C 68.351562 18.859375 68.433594 19.054688 68.472656 19.117188 C 68.800781 19.597656 71.464844 19.148438 72.46875 18.984375 C 74.722656 18.605469 76.671875 18.28125 77.476562 19.707031 C 78.054688 20.722656 77.625 22.070312 76.167969 23.816406 C 75.714844 24.359375 75.230469 24.773438 74.800781 25.09375 C 75.15625 25.308594 75.476562 25.632812 75.605469 26.144531 C 75.90625 27.359375 74.867188 28.570312 72.511719 29.757812 C 71.929688 30.054688 71.140625 30.453125 70.039062 30.644531 C 69.519531 30.730469 69.050781 30.753906 68.652344 30.765625 C 68.644531 30.996094 68.589844 31.25 68.449219 31.507812 C 68.035156 32.265625 67.175781 32.628906 65.878906 32.542969 C 64.449219 32.46875 63.277344 32.195312 62.238281 31.957031 C 61.335938 31.75 60.554688 31.570312 59.941406 31.613281 C 58.808594 31.703125 57.933594 32.613281 56.90625 33.796875 Z M 54.34375 36.796875 "/>
<path style=" stroke:none;fill-rule:nonzero;fill:rgb(94.901961%,94.901961%,94.901961%);fill-opacity:1;" d="M 59.449219 133.835938 L 58.402344 133.179688 L 58.148438 131.96875 L 58.402344 133.179688 L 57.183594 133.320312 C 57.164062 133.207031 57.097656 132.945312 57 132.539062 C 56.453125 130.300781 54.789062 123.5 53.398438 112.785156 C 52.429688 105.308594 51.882812 97.621094 51.769531 89.933594 C 51.65625 82.230469 52.019531 76.402344 52.3125 71.714844 C 52.53125 68.183594 52.800781 64.816406 53.0625 61.539062 C 53.761719 52.78125 54.421875 44.507812 53.929688 35.351562 C 53.820312 33.304688 53.59375 29.050781 51.109375 24.519531 C 49.671875 21.894531 47.6875 19.5625 45.214844 17.59375 L 46.75 15.65625 C 49.480469 17.835938 51.675781 20.417969 53.277344 23.332031 C 56.027344 28.355469 56.277344 32.992188 56.394531 35.21875 C 56.894531 44.539062 56.226562 52.890625 55.523438 61.734375 C 55.261719 65 54.992188 68.351562 54.773438 71.871094 C 54.484375 76.511719 54.125 82.292969 54.238281 89.894531 C 54.347656 97.488281 54.890625 105.085938 55.847656 112.46875 C 57.21875 123.046875 58.859375 129.746094 59.398438 131.949219 C 59.683594 133.125 59.742188 133.371094 59.449219 133.835938 Z M 59.449219 133.835938 "/>
<path style=" stroke:none;fill-rule:nonzero;fill:rgb(94.901961%,94.901961%,94.901961%);fill-opacity:1;" d="M 40.6875 21.519531 C 40.585938 21.519531 40.484375 21.519531 40.378906 21.511719 C 38.277344 21.398438 36.332031 20.136719 34.59375 17.765625 C 33.78125 16.652344 33.363281 15.378906 32.53125 12.84375 C 32.402344 12.453125 31.773438 10.46875 31.394531 7.738281 C 31.144531 5.953125 31.175781 5.207031 31.53125 4.546875 C 31.921875 3.8125 32.554688 3.300781 33.269531 2.957031 C 33.238281 2.722656 33.261719 2.476562 33.363281 2.226562 C 33.785156 1.199219 34.902344 1.332031 35.507812 1.398438 C 35.816406 1.4375 36.195312 1.488281 36.609375 1.464844 C 37.257812 1.433594 37.605469 1.242188 38.132812 0.953125 C 38.636719 0.671875 39.265625 0.328125 40.199219 0.136719 C 42.035156 -0.246094 43.574219 0.277344 44.082031 0.445312 C 46.75 1.335938 48.066406 3.414062 49.589844 5.824219 C 49.894531 6.304688 50.9375 8.0625 51.625 10.472656 C 52.121094 12.210938 52.050781 12.984375 51.902344 13.558594 C 51.597656 14.738281 50.878906 15.414062 49.058594 16.90625 C 47.15625 18.46875 46.203125 19.25 45.382812 19.722656 C 43.476562 20.828125 42.277344 21.519531 40.6875 21.519531 Z M 40.6875 21.519531 "/>
<path style=" stroke:none;fill-rule:nonzero;fill:rgb(24.705882%,23.921569%,33.72549%);fill-opacity:1;" d="M 143.351562 332.234375 C 143.351562 332.566406 143.617188 332.832031 143.949219 332.832031 L 267.59375 332.832031 C 267.921875 332.832031 268.1875 332.566406 268.1875 332.234375 C 268.1875 332.074219 268.128906 331.933594 268.027344 331.828125 L 223.167969 331.828125 C 222.214844 331.828125 221.277344 331.765625 220.359375 331.640625 L 143.949219 331.640625 C 143.617188 331.640625 143.351562 331.90625 143.351562 332.234375 Z M 143.351562 332.234375 "/>
<path style=" stroke:none;fill-rule:nonzero;fill:rgb(100%,100%,100%);fill-opacity:1;" d="M 83.613281 226.8125 L 152.449219 226.8125 C 164.109375 226.8125 173.5625 236.277344 173.5625 247.957031 L 173.5625 303.257812 C 173.5625 314.933594 164.109375 324.402344 152.449219 324.402344 L 83.613281 324.402344 C 71.953125 324.402344 62.5 314.933594 62.5 303.257812 L 62.5 247.957031 C 62.5 236.277344 71.953125 226.8125 83.613281 226.8125 Z M 83.613281 226.8125 "/>
<path style=" stroke:none;fill-rule:nonzero;fill:rgb(24.705882%,23.921569%,33.72549%);fill-opacity:1;" d="M 62 303.257812 L 62 247.957031 C 62 236.019531 71.695312 226.308594 83.613281 226.308594 L 152.449219 226.308594 C 164.367188 226.308594 174.066406 236.019531 174.066406 247.957031 L 174.066406 303.257812 C 174.066406 315.191406 164.367188 324.902344 152.449219 324.902344 L 83.613281 324.902344 C 71.695312 324.902344 62 315.191406 62 303.257812 Z M 83.613281 227.3125 C 72.246094 227.3125 63 236.574219 63 247.957031 L 63 303.257812 C 63 314.640625 72.246094 323.902344 83.613281 323.902344 L 152.449219 323.902344 C 163.816406 323.902344 173.066406 314.640625 173.066406 303.257812 L 173.066406 247.957031 C 173.066406 236.574219 163.816406 227.3125 152.449219 227.3125 Z M 83.613281 227.3125 "/>
<path style=" stroke:none;fill-rule:nonzero;fill:url(#linear0);" d="M 109.351562 251.023438 L 124.769531 251.023438 L 108.761719 298.515625 C 108.425781 299.515625 107.488281 300.191406 106.433594 300.191406 L 94.433594 300.191406 C 93.078125 300.191406 91.980469 299.089844 91.980469 297.734375 C 91.980469 297.464844 92.023438 297.199219 92.109375 296.945312 L 107.019531 252.699219 C 107.359375 251.695312 108.296875 251.023438 109.351562 251.023438 Z M 109.351562 251.023438 "/>
<path style=" stroke:none;fill-rule:nonzero;fill:rgb(0%,47.058824%,83.137255%);fill-opacity:1;" d="M 131.753906 282.878906 L 107.304688 282.878906 C 106.679688 282.878906 106.171875 283.382812 106.171875 284.011719 C 106.171875 284.324219 106.304688 284.625 106.53125 284.839844 L 122.242188 299.527344 C 122.699219 299.953125 123.304688 300.191406 123.929688 300.191406 L 137.773438 300.191406 Z M 131.753906 282.878906 "/>
<path style=" stroke:none;fill-rule:nonzero;fill:url(#linear1);" d="M 109.351562 251.023438 C 108.28125 251.019531 107.335938 251.710938 107.015625 252.730469 L 92.128906 296.90625 C 91.671875 298.183594 92.332031 299.589844 93.605469 300.046875 C 93.875 300.140625 94.15625 300.191406 94.441406 300.191406 L 106.75 300.191406 C 107.683594 300.023438 108.453125 299.367188 108.769531 298.46875 L 111.738281 289.707031 L 122.34375 299.613281 C 122.789062 299.980469 123.34375 300.1875 123.921875 300.191406 L 137.714844 300.191406 L 131.664062 282.878906 L 114.03125 282.882812 L 124.824219 251.023438 Z M 109.351562 251.023438 "/>
<path style=" stroke:none;fill-rule:nonzero;fill:url(#linear2);" d="M 129.042969 252.695312 C 128.707031 251.695312 127.769531 251.023438 126.71875 251.023438 L 109.535156 251.023438 C 110.585938 251.023438 111.523438 251.695312 111.859375 252.695312 L 126.773438 296.945312 C 127.207031 298.230469 126.515625 299.628906 125.230469 300.0625 C 124.976562 300.148438 124.714844 300.191406 124.445312 300.191406 L 141.628906 300.191406 C 142.984375 300.191406 144.085938 299.089844 144.082031 297.730469 C 144.082031 297.464844 144.039062 297.199219 143.953125 296.945312 Z M 129.042969 252.695312 "/>
<path style=" stroke:none;fill-rule:nonzero;fill:rgb(100%,100%,100%);fill-opacity:1;" d="M 21.613281 103.625 L 90.449219 103.625 C 102.109375 103.625 111.5625 113.09375 111.5625 124.773438 L 111.5625 180.074219 C 111.5625 191.75 102.109375 201.21875 90.449219 201.21875 L 21.613281 201.21875 C 9.953125 201.21875 0.5 191.75 0.5 180.074219 L 0.5 124.773438 C 0.5 113.09375 9.953125 103.625 21.613281 103.625 Z M 21.613281 103.625 "/>
<path style=" stroke:none;fill-rule:nonzero;fill:rgb(24.705882%,23.921569%,33.72549%);fill-opacity:1;" d="M 0 180.074219 L 0 124.773438 C 0 112.835938 9.695312 103.125 21.613281 103.125 L 90.449219 103.125 C 102.367188 103.125 112.066406 112.835938 112.066406 124.773438 L 112.066406 180.074219 C 112.066406 192.007812 102.367188 201.71875 90.449219 201.71875 L 21.613281 201.71875 C 9.695312 201.71875 0 192.007812 0 180.074219 Z M 21.613281 104.128906 C 10.246094 104.128906 1 113.390625 1 124.773438 L 1 180.074219 C 1 191.457031 10.246094 200.71875 21.613281 200.71875 L 90.449219 200.71875 C 101.816406 200.71875 111.066406 191.457031 111.066406 180.074219 L 111.066406 124.773438 C 111.066406 113.390625 101.816406 104.128906 90.449219 104.128906 Z M 21.613281 104.128906 "/>
<path style=" stroke:none;fill-rule:nonzero;fill:rgb(14.509804%,18.431373%,24.313725%);fill-opacity:1;" d="M 42.285156 153.269531 C 42.285156 154.046875 42.367188 154.675781 42.515625 155.136719 C 42.683594 155.597656 42.890625 156.101562 43.1875 156.648438 C 43.289062 156.816406 43.332031 156.984375 43.332031 157.128906 C 43.332031 157.339844 43.207031 157.550781 42.933594 157.761719 L 41.613281 158.640625 C 41.425781 158.769531 41.238281 158.832031 41.070312 158.832031 C 40.859375 158.832031 40.648438 158.726562 40.441406 158.535156 C 40.148438 158.222656 39.894531 157.886719 39.6875 157.550781 C 39.476562 157.195312 39.265625 156.792969 39.035156 156.3125 C 37.402344 158.242188 35.347656 159.207031 32.875 159.207031 C 31.113281 159.207031 29.710938 158.703125 28.683594 157.695312 C 27.65625 156.691406 27.132812 155.347656 27.132812 153.667969 C 27.132812 151.882812 27.761719 150.4375 29.039062 149.34375 C 30.320312 148.253906 32.015625 147.707031 34.175781 147.707031 C 34.886719 147.707031 35.621094 147.769531 36.394531 147.875 C 37.171875 147.980469 37.96875 148.148438 38.804688 148.335938 L 38.804688 146.804688 C 38.804688 145.210938 38.46875 144.097656 37.820312 143.445312 C 37.148438 142.796875 36.019531 142.480469 34.40625 142.480469 C 33.671875 142.480469 32.917969 142.566406 32.140625 142.753906 C 31.367188 142.941406 30.613281 143.175781 29.878906 143.46875 C 29.542969 143.613281 29.292969 143.699219 29.144531 143.742188 C 29 143.78125 28.894531 143.804688 28.808594 143.804688 C 28.515625 143.804688 28.371094 143.59375 28.371094 143.152344 L 28.371094 142.125 C 28.371094 141.789062 28.410156 141.539062 28.515625 141.390625 C 28.621094 141.242188 28.808594 141.097656 29.101562 140.949219 C 29.835938 140.570312 30.71875 140.257812 31.742188 140.003906 C 32.769531 139.730469 33.859375 139.605469 35.011719 139.605469 C 37.507812 139.605469 39.328125 140.171875 40.503906 141.304688 C 41.65625 142.441406 42.242188 144.160156 42.242188 146.46875 L 42.242188 153.269531 Z M 33.777344 156.460938 C 34.46875 156.460938 35.179688 156.332031 35.933594 156.082031 C 36.6875 155.828125 37.359375 155.367188 37.925781 154.738281 C 38.261719 154.339844 38.511719 153.898438 38.636719 153.394531 C 38.765625 152.890625 38.847656 152.28125 38.847656 151.570312 L 38.847656 150.6875 C 38.238281 150.539062 37.589844 150.414062 36.917969 150.332031 C 36.25 150.246094 35.597656 150.203125 34.949219 150.203125 C 33.546875 150.203125 32.519531 150.476562 31.828125 151.042969 C 31.136719 151.609375 30.800781 152.410156 30.800781 153.457031 C 30.800781 154.445312 31.050781 155.179688 31.574219 155.683594 C 32.078125 156.207031 32.8125 156.460938 33.777344 156.460938 Z M 50.605469 158.726562 C 50.226562 158.726562 49.976562 158.664062 49.808594 158.515625 C 49.640625 158.390625 49.492188 158.097656 49.367188 157.695312 L 44.441406 141.472656 C 44.316406 141.054688 44.253906 140.78125 44.253906 140.632812 C 44.253906 140.300781 44.421875 140.109375 44.757812 140.109375 L 46.8125 140.109375 C 47.210938 140.109375 47.480469 140.171875 47.628906 140.320312 C 47.796875 140.445312 47.921875 140.738281 48.046875 141.136719 L 51.566406 155.03125 L 54.835938 141.136719 C 54.941406 140.71875 55.066406 140.445312 55.234375 140.320312 C 55.402344 140.195312 55.695312 140.109375 56.074219 140.109375 L 57.75 140.109375 C 58.148438 140.109375 58.421875 140.171875 58.589844 140.320312 C 58.753906 140.445312 58.902344 140.738281 58.984375 141.136719 L 62.296875 155.199219 L 65.921875 141.136719 C 66.046875 140.71875 66.195312 140.445312 66.339844 140.320312 C 66.507812 140.195312 66.78125 140.109375 67.160156 140.109375 L 69.109375 140.109375 C 69.441406 140.109375 69.632812 140.277344 69.632812 140.632812 C 69.632812 140.738281 69.609375 140.84375 69.589844 140.96875 C 69.570312 141.097656 69.527344 141.265625 69.441406 141.496094 L 64.394531 157.71875 C 64.265625 158.136719 64.121094 158.410156 63.953125 158.535156 C 63.785156 158.664062 63.511719 158.746094 63.15625 158.746094 L 61.355469 158.746094 C 60.957031 158.746094 60.683594 158.683594 60.515625 158.535156 C 60.347656 158.390625 60.203125 158.117188 60.117188 157.695312 L 56.871094 144.160156 L 53.640625 157.675781 C 53.539062 158.097656 53.410156 158.367188 53.246094 158.515625 C 53.078125 158.664062 52.785156 158.726562 52.40625 158.726562 Z M 77.53125 159.292969 C 76.441406 159.292969 75.351562 159.167969 74.304688 158.914062 C 73.257812 158.664062 72.441406 158.390625 71.894531 158.074219 C 71.558594 157.886719 71.328125 157.675781 71.246094 157.488281 C 71.160156 157.296875 71.121094 157.089844 71.121094 156.898438 L 71.121094 155.828125 C 71.121094 155.390625 71.289062 155.179688 71.601562 155.179688 C 71.726562 155.179688 71.851562 155.199219 71.980469 155.242188 C 72.105469 155.285156 72.292969 155.367188 72.503906 155.453125 C 73.214844 155.765625 73.992188 156.019531 74.808594 156.1875 C 75.644531 156.355469 76.464844 156.4375 77.300781 156.4375 C 78.621094 156.4375 79.648438 156.207031 80.359375 155.746094 C 81.074219 155.285156 81.449219 154.613281 81.449219 153.75 C 81.449219 153.164062 81.261719 152.679688 80.886719 152.28125 C 80.507812 151.882812 79.796875 151.527344 78.769531 151.191406 L 75.730469 150.246094 C 74.199219 149.765625 73.070312 149.050781 72.378906 148.105469 C 71.683594 147.183594 71.328125 146.15625 71.328125 145.0625 C 71.328125 144.179688 71.519531 143.40625 71.894531 142.734375 C 72.273438 142.0625 72.773438 141.472656 73.402344 141.011719 C 74.03125 140.53125 74.746094 140.171875 75.582031 139.921875 C 76.421875 139.667969 77.300781 139.5625 78.222656 139.5625 C 78.683594 139.5625 79.167969 139.585938 79.628906 139.648438 C 80.109375 139.710938 80.550781 139.796875 80.988281 139.878906 C 81.410156 139.984375 81.808594 140.089844 82.183594 140.214844 C 82.5625 140.339844 82.855469 140.46875 83.066406 140.59375 C 83.359375 140.761719 83.566406 140.929688 83.691406 141.117188 C 83.820312 141.285156 83.882812 141.515625 83.882812 141.808594 L 83.882812 142.796875 C 83.882812 143.238281 83.714844 143.46875 83.398438 143.46875 C 83.230469 143.46875 82.960938 143.382812 82.605469 143.214844 C 81.410156 142.671875 80.066406 142.398438 78.578125 142.398438 C 77.386719 142.398438 76.441406 142.585938 75.792969 142.984375 C 75.144531 143.382812 74.808594 143.992188 74.808594 144.851562 C 74.808594 145.441406 75.015625 145.945312 75.4375 146.34375 C 75.855469 146.742188 76.632812 147.140625 77.742188 147.496094 L 80.71875 148.441406 C 82.226562 148.925781 83.316406 149.597656 83.964844 150.457031 C 84.617188 151.316406 84.929688 152.304688 84.929688 153.394531 C 84.929688 154.296875 84.742188 155.117188 84.386719 155.828125 C 84.007812 156.542969 83.503906 157.171875 82.855469 157.675781 C 82.207031 158.199219 81.429688 158.578125 80.527344 158.851562 C 79.585938 159.144531 78.601562 159.292969 77.53125 159.292969 Z M 77.53125 159.292969 "/>
<path style=" stroke:none;fill-rule:evenodd;fill:rgb(100%,60%,0%);fill-opacity:1;" d="M 81.492188 169.492188 C 74.597656 174.59375 64.582031 177.300781 55.96875 177.300781 C 43.898438 177.300781 33.023438 172.828125 24.808594 165.398438 C 24.15625 164.8125 24.746094 164.015625 25.519531 164.476562 C 34.40625 169.640625 45.363281 172.765625 56.703125 172.765625 C 64.351562 172.765625 72.753906 171.171875 80.488281 167.898438 C 81.640625 167.371094 82.625 168.652344 81.492188 169.492188 Z M 81.492188 169.492188 "/>
<path style=" stroke:none;fill-rule:evenodd;fill:rgb(100%,60%,0%);fill-opacity:1;" d="M 84.363281 166.21875 C 83.484375 165.085938 78.539062 165.671875 76.296875 165.945312 C 75.625 166.027344 75.519531 165.441406 76.128906 165 C 80.066406 162.230469 86.542969 163.027344 87.296875 163.953125 C 88.050781 164.894531 87.089844 171.382812 83.398438 174.488281 C 82.835938 174.96875 82.289062 174.71875 82.539062 174.089844 C 83.378906 172.011719 85.242188 167.332031 84.363281 166.21875 Z M 84.363281 166.21875 "/>
<path style=" stroke:none;fill-rule:nonzero;fill:rgb(100%,71.372549%,71.372549%);fill-opacity:1;" d="M 214.214844 140.457031 C 213.714844 139.953125 209.714844 129.4375 209.714844 129.4375 L 200.214844 128.9375 L 195.867188 139.203125 Z M 214.214844 140.457031 "/>
<path style=" stroke:none;fill-rule:nonzero;fill:rgb(100%,71.372549%,71.372549%);fill-opacity:1;" d="M 213.523438 120.976562 C 213.523438 128.046875 207.800781 133.78125 200.738281 133.78125 C 193.675781 133.78125 187.949219 128.046875 187.949219 120.976562 C 187.949219 113.902344 193.675781 108.167969 200.738281 108.167969 C 207.800781 108.167969 213.523438 113.902344 213.523438 120.976562 Z M 213.523438 120.976562 "/>
<path style=" stroke:none;fill-rule:nonzero;fill:rgb(18.431373%,18.039216%,25.490196%);fill-opacity:1;" d="M 224.964844 209.808594 L 229.464844 224.832031 L 217.464844 311.960938 L 209.339844 311.960938 L 204.964844 246.363281 L 199.964844 268.898438 L 225.464844 301.445312 L 218.964844 308.957031 L 182.214844 273.152344 L 182.964844 217.820312 L 185.964844 209.308594 Z M 224.964844 209.808594 "/>
<path style=" stroke:none;fill-rule:nonzero;fill:rgb(18.431373%,18.039216%,25.490196%);fill-opacity:1;" d="M 211.457031 131.496094 L 210.460938 131.546875 C 210.460938 131.546875 209.566406 123.566406 209.042969 123.09375 C 208.519531 122.617188 207.570312 123.667969 207.570312 123.667969 C 207.570312 123.667969 203.449219 121.363281 203.328125 118.863281 C 203.203125 116.363281 203.105469 114.359375 201.609375 114.433594 C 200.109375 114.507812 191.71875 116.929688 189.722656 117.027344 C 187.722656 117.125 184.554688 113.773438 187.902344 110.597656 C 191.25 107.425781 194.199219 106.277344 194.671875 105.753906 C 195.148438 105.226562 198.273438 103.066406 201.003906 104.9375 C 203.734375 106.808594 207.230469 106.636719 207.230469 106.636719 C 207.230469 106.636719 213.796875 107.816406 212.945312 110.867188 C 212.09375 113.917969 215.386719 119.769531 214.035156 122.847656 C 212.6875 125.921875 211.457031 131.496094 211.457031 131.496094 Z M 211.457031 131.496094 "/>
<path style=" stroke:none;fill-rule:nonzero;fill:rgb(18.431373%,18.039216%,25.490196%);fill-opacity:1;" d="M 208.964844 310.457031 L 217.964844 311.460938 L 218.964844 327.984375 C 218.964844 327.984375 218.464844 335.996094 209.964844 334.996094 C 201.464844 333.992188 203.964844 325.980469 203.964844 325.980469 Z M 208.964844 310.457031 "/>
<path style=" stroke:none;fill-rule:nonzero;fill:rgb(18.431373%,18.039216%,25.490196%);fill-opacity:1;" d="M 220.714844 298.691406 C 220.714844 298.691406 227.214844 295.6875 228.214844 299.191406 L 230.214844 306.203125 C 230.214844 306.203125 230.214844 313.214844 230.714844 313.714844 C 231.214844 314.214844 240.714844 327.234375 232.214844 334.246094 C 232.214844 334.246094 227.714844 334.746094 225.214844 327.734375 C 222.714844 320.722656 215.214844 313.714844 215.214844 313.714844 C 215.214844 313.714844 213.761719 310.207031 216.238281 310.457031 C 218.714844 310.710938 222.214844 304.699219 221.214844 302.695312 C 220.214844 300.695312 220.714844 298.691406 220.714844 298.691406 Z M 220.714844 298.691406 "/>
<path style=" stroke:none;fill-rule:nonzero;fill:rgb(100%,71.372549%,71.372549%);fill-opacity:1;" d="M 138.164062 233.269531 C 135.839844 232.289062 135.199219 228.527344 136.742188 224.863281 C 137.335938 223.394531 138.273438 222.085938 139.476562 221.050781 L 141.273438 216.925781 L 141.210938 216.882812 L 146.375 196.257812 C 147.578125 191.464844 150.886719 187.417969 155.429688 185.484375 C 158.128906 184.332031 160.695312 184.125 161.441406 186.882812 C 162.675781 191.457031 154.617188 206.199219 149.761719 214.492188 L 145.972656 223.792969 C 146.078125 225.378906 145.796875 226.964844 145.164062 228.417969 C 143.625 232.078125 140.492188 234.253906 138.164062 233.269531 Z M 138.164062 233.269531 "/>
<path style=" stroke:none;fill-rule:nonzero;fill:rgb(38.823529%,91.372549%,100%);fill-opacity:1;" d="M 196.214844 137.449219 L 212.714844 137.953125 L 228.714844 144.960938 L 226.214844 186.523438 C 226.214844 186.523438 229.214844 196.039062 227.714844 197.539062 C 226.214844 199.042969 227.714844 205.777344 226.714844 205.914062 C 225.714844 206.054688 226.714844 213.296875 226.714844 213.296875 C 226.714844 213.296875 212.714844 208.558594 200.714844 211.5625 C 188.714844 214.566406 184.714844 209.558594 184.714844 209.558594 C 184.714844 209.558594 181.714844 197.539062 181.714844 195.035156 L 181.714844 143.839844 Z M 196.214844 137.449219 "/>
<path style=" stroke:none;fill-rule:nonzero;fill:rgb(38.823529%,91.372549%,100%);fill-opacity:1;" d="M 184.464844 143.710938 C 184.464844 143.710938 177.464844 141.707031 173.964844 146.714844 C 170.464844 151.722656 168.464844 151.722656 168.464844 158.230469 C 168.464844 158.230469 147.964844 187.273438 148.964844 190.28125 L 144.214844 198.042969 L 156.214844 204.550781 C 156.214844 204.550781 160.464844 200.292969 160.464844 196.289062 C 160.464844 192.28125 172.464844 181.265625 172.464844 181.265625 C 172.464844 181.265625 182.964844 167.746094 183.464844 162.738281 C 183.964844 157.730469 184.464844 143.710938 184.464844 143.710938 Z M 184.464844 143.710938 "/>
<path style=" stroke:none;fill-rule:nonzero;fill:rgb(100%,100%,100%);fill-opacity:1;" d="M 246.113281 235.824219 L 314.949219 235.824219 C 326.609375 235.824219 336.0625 245.292969 336.0625 256.96875 L 336.0625 312.269531 C 336.0625 323.949219 326.609375 333.417969 314.949219 333.417969 L 246.113281 333.417969 C 234.453125 333.417969 225 323.949219 225 312.269531 L 225 256.96875 C 225 245.292969 234.453125 235.824219 246.113281 235.824219 Z M 246.113281 235.824219 "/>
<path style=" stroke:none;fill-rule:nonzero;fill:rgb(24.705882%,23.921569%,33.72549%);fill-opacity:1;" d="M 224 311.769531 L 224 256.46875 C 224 244.535156 233.695312 234.824219 245.613281 234.824219 L 314.449219 234.824219 C 326.367188 234.824219 336.066406 244.535156 336.066406 256.46875 L 336.066406 311.769531 C 336.066406 323.707031 326.367188 333.417969 314.449219 333.417969 L 245.613281 333.417969 C 233.695312 333.417969 224 323.707031 224 311.769531 Z M 245.613281 235.824219 C 234.246094 235.824219 225 245.085938 225 256.46875 L 225 311.769531 C 225 323.152344 234.246094 332.414062 245.613281 332.414062 L 314.449219 332.414062 C 325.816406 332.414062 335.066406 323.152344 335.066406 311.769531 L 335.066406 256.46875 C 335.066406 245.085938 325.816406 235.824219 314.449219 235.824219 Z M 245.613281 235.824219 "/>
<path style=" stroke:none;fill-rule:nonzero;fill:rgb(91.764706%,26.27451%,20.784314%);fill-opacity:1;" d="M 289.292969 274.488281 L 290.992188 274.488281 L 295.832031 269.640625 L 296.070312 267.582031 C 287.0625 259.617188 273.3125 260.476562 265.359375 269.5 C 263.152344 272.003906 261.546875 274.988281 260.671875 278.214844 C 261.210938 277.992188 261.808594 277.957031 262.371094 278.109375 L 272.054688 276.511719 C 272.054688 276.511719 272.546875 275.695312 272.800781 275.746094 C 277.109375 271.007812 284.355469 270.457031 289.328125 274.488281 Z M 289.292969 274.488281 "/>
<path style=" stroke:none;fill-rule:nonzero;fill:rgb(25.882353%,52.156863%,95.686275%);fill-opacity:1;" d="M 302.730469 278.214844 C 301.617188 274.109375 299.332031 270.421875 296.15625 267.597656 L 289.363281 274.402344 C 292.230469 276.75 293.867188 280.285156 293.796875 283.996094 L 293.796875 285.203125 C 297.136719 285.203125 299.84375 287.917969 299.84375 291.261719 C 299.84375 294.605469 297.136719 297.316406 293.796875 297.316406 L 281.703125 297.316406 L 280.496094 298.542969 L 280.496094 305.804688 L 281.703125 307.011719 L 293.796875 307.011719 C 302.480469 307.082031 309.578125 300.082031 309.644531 291.382812 C 309.6875 286.109375 307.089844 281.167969 302.730469 278.214844 Z M 302.730469 278.214844 "/>
<path style=" stroke:none;fill-rule:nonzero;fill:rgb(20.392157%,65.882353%,32.54902%);fill-opacity:1;" d="M 269.589844 306.945312 L 281.683594 306.945312 L 281.683594 297.25 L 269.589844 297.25 C 268.730469 297.25 267.878906 297.0625 267.09375 296.703125 L 265.394531 297.230469 L 260.519531 302.078125 L 260.09375 303.78125 C 262.828125 305.847656 266.164062 306.960938 269.589844 306.945312 Z M 269.589844 306.945312 "/>
<path style=" stroke:none;fill-rule:nonzero;fill:rgb(98.431373%,73.72549%,1.960784%);fill-opacity:1;" d="M 269.589844 275.492188 C 260.902344 275.542969 253.902344 282.636719 253.957031 291.335938 C 253.984375 296.195312 256.25 300.769531 260.09375 303.730469 L 267.109375 296.703125 C 264.066406 295.328125 262.714844 291.738281 264.089844 288.691406 C 265.464844 285.644531 269.046875 284.289062 272.089844 285.667969 C 273.429688 286.273438 274.503906 287.347656 275.109375 288.691406 L 282.125 281.667969 C 279.140625 277.757812 274.503906 275.472656 269.589844 275.492188 Z M 269.589844 275.492188 "/>
<path style=" stroke:none;fill-rule:nonzero;fill:rgb(100%,71.372549%,71.372549%);fill-opacity:1;" d="M 238.757812 244.601562 C 241.277344 244.46875 243.152344 241.148438 242.945312 237.179688 C 242.882812 235.59375 242.445312 234.042969 241.664062 232.664062 L 241.371094 228.167969 L 241.445312 228.148438 L 243.574219 206.996094 C 244.070312 202.078125 242.328125 197.148438 238.710938 193.785156 C 236.558594 191.78125 234.21875 190.714844 232.582031 193.054688 C 229.867188 196.941406 232.453125 213.542969 234.214844 222.996094 L 234.621094 233.03125 C 233.988281 234.488281 233.710938 236.074219 233.816406 237.660156 C 234.023438 241.625 236.234375 244.734375 238.757812 244.601562 Z M 238.757812 244.601562 "/>
<path style=" stroke:none;fill-rule:nonzero;fill:rgb(38.823529%,91.372549%,100%);fill-opacity:1;" d="M 225.554688 144.621094 C 225.554688 144.621094 232.816406 145.113281 234.414062 151.015625 C 236.007812 156.914062 237.890625 157.59375 235.683594 163.71875 C 235.683594 163.71875 245.125 198.003906 243.164062 200.492188 L 245.003906 209.40625 L 231.511719 211.449219 C 231.511719 211.449219 228.953125 206.003906 230.3125 202.234375 C 231.667969 198.464844 224.117188 184.023438 224.117188 184.023438 C 224.117188 184.023438 218.820312 167.738281 220.046875 162.859375 C 221.273438 157.976562 225.554688 144.621094 225.554688 144.621094 Z M 225.554688 144.621094 "/>
</g>
</svg>
