<?xml version="1.0" encoding="UTF-8"?>
<svg xmlns="http://www.w3.org/2000/svg" xmlns:xlink="http://www.w3.org/1999/xlink" width="px" height="px" viewBox="0 0 449 279" version="1.1">
<defs>
<filter id="alpha" filterUnits="objectBoundingBox" x="0%" y="0%" width="100%" height="100%">
  <feColorMatrix type="matrix" in="SourceGraphic" values="0 0 0 0 1 0 0 0 0 1 0 0 0 0 1 0 0 0 1 0"/>
</filter>
<mask id="mask0">
  <g filter="url(#alpha)">
<rect x="0" y="0" width="449" height="279" style="fill:rgb(0%,0%,0%);fill-opacity:0.501961;stroke:none;"/>
  </g>
</mask>
<clipPath id="clip1">
  <rect x="0" y="0" width="450" height="279"/>
</clipPath>
<g id="surface5" clip-path="url(#clip1)">
<path style=" stroke:none;fill-rule:nonzero;fill:rgb(38.823529%,91.372549%,100%);fill-opacity:1;" d="M 436.03125 144.679688 L 271.339844 144.679688 C 269.113281 144.675781 267.304688 142.867188 267.304688 140.636719 L 267.304688 111.652344 C 267.304688 109.421875 269.113281 107.613281 271.339844 107.613281 L 436.03125 107.613281 C 438.257812 107.613281 440.066406 109.421875 440.066406 111.652344 L 440.066406 140.636719 C 440.066406 142.867188 438.257812 144.675781 436.03125 144.679688 Z M 436.03125 144.679688 "/>
</g>
<mask id="mask1">
  <g filter="url(#alpha)">
<rect x="0" y="0" width="449" height="279" style="fill:rgb(0%,0%,0%);fill-opacity:0.501961;stroke:none;"/>
  </g>
</mask>
<clipPath id="clip2">
  <rect x="0" y="0" width="450" height="279"/>
</clipPath>
<g id="surface8" clip-path="url(#clip2)">
<path style=" stroke:none;fill-rule:nonzero;fill:rgb(38.823529%,91.372549%,100%);fill-opacity:1;" d="M 224.191406 200.964844 L 171.625 200.964844 C 169.398438 200.964844 167.589844 199.15625 167.589844 196.925781 L 167.589844 148.90625 C 167.589844 146.675781 169.398438 144.867188 171.625 144.867188 L 224.191406 144.867188 C 226.417969 144.867188 228.226562 146.675781 228.226562 148.90625 L 228.226562 196.925781 C 228.226562 199.15625 226.417969 200.964844 224.191406 200.964844 Z M 224.191406 200.964844 "/>
</g>
<mask id="mask2">
  <g filter="url(#alpha)">
<rect x="0" y="0" width="449" height="279" style="fill:rgb(0%,0%,0%);fill-opacity:0.501961;stroke:none;"/>
  </g>
</mask>
<clipPath id="clip3">
  <rect x="0" y="0" width="450" height="279"/>
</clipPath>
<g id="surface11" clip-path="url(#clip3)">
<path style=" stroke:none;fill-rule:nonzero;fill:rgb(38.823529%,91.372549%,100%);fill-opacity:1;" d="M 164.125 114.339844 L 111.5625 114.339844 C 109.332031 114.335938 107.527344 112.527344 107.523438 110.296875 L 107.523438 62.277344 C 107.527344 60.046875 109.332031 58.238281 111.5625 58.238281 L 164.125 58.238281 C 166.355469 58.238281 168.160156 60.046875 168.164062 62.277344 L 168.164062 110.296875 C 168.160156 112.527344 166.355469 114.335938 164.125 114.339844 Z M 164.125 114.339844 "/>
</g>
</defs>
<g id="surface1">
<path style=" stroke:none;fill-rule:nonzero;fill:rgb(94.901961%,94.901961%,94.901961%);fill-opacity:1;" d="M 108.789062 251.472656 L 109.289062 240.238281 C 114.496094 237.453125 120.304688 235.980469 126.207031 235.953125 C 118.082031 242.597656 119.097656 255.410156 113.589844 264.351562 C 110.066406 269.972656 104.179688 273.683594 97.589844 274.4375 L 90.792969 278.605469 C 88.902344 268.070312 91.71875 257.238281 98.496094 248.960938 C 100.398438 246.6875 102.578125 244.660156 104.988281 242.929688 C 106.613281 247.226562 108.789062 251.472656 108.789062 251.472656 Z M 108.789062 251.472656 "/>
<path style=" stroke:none;fill-rule:nonzero;fill:rgb(79.215686%,79.215686%,79.215686%);fill-opacity:1;" d="M 398.90625 18.308594 L 82.390625 18.308594 C 82.113281 18.304688 81.894531 18.078125 81.894531 17.800781 C 81.894531 17.523438 82.113281 17.296875 82.390625 17.292969 L 398.90625 17.292969 C 399.179688 17.296875 399.402344 17.523438 399.402344 17.800781 C 399.402344 18.078125 399.179688 18.304688 398.90625 18.308594 Z M 398.90625 18.308594 "/>
<path style=" stroke:none;fill-rule:nonzero;fill:rgb(24.705882%,23.921569%,33.72549%);fill-opacity:1;" d="M 99.050781 5.59375 C 99.050781 2.503906 96.601562 0 93.582031 0 C 90.558594 0 88.113281 2.503906 88.113281 5.59375 C 88.113281 8.683594 90.558594 11.1875 93.582031 11.1875 C 96.601562 11.1875 99.050781 8.683594 99.050781 5.59375 Z M 99.050781 5.59375 "/>
<path style=" stroke:none;fill-rule:nonzero;fill:rgb(24.705882%,23.921569%,33.72549%);fill-opacity:1;" d="M 117.941406 5.59375 C 117.941406 2.503906 115.492188 0 112.472656 0 C 109.453125 0 107.003906 2.503906 107.003906 5.59375 C 107.003906 8.683594 109.453125 11.1875 112.472656 11.1875 C 115.492188 11.1875 117.941406 8.683594 117.941406 5.59375 Z M 117.941406 5.59375 "/>
<path style=" stroke:none;fill-rule:nonzero;fill:rgb(24.705882%,23.921569%,33.72549%);fill-opacity:1;" d="M 136.832031 5.59375 C 136.832031 2.503906 134.386719 0 131.363281 0 C 128.34375 0 125.894531 2.503906 125.894531 5.59375 C 125.894531 8.683594 128.34375 11.1875 131.363281 11.1875 C 134.386719 11.1875 136.832031 8.683594 136.832031 5.59375 Z M 136.832031 5.59375 "/>
<path style=" stroke:none;fill-rule:nonzero;fill:rgb(24.705882%,23.921569%,33.72549%);fill-opacity:1;" d="M 387.582031 1.386719 L 374.164062 1.386719 C 373.609375 1.398438 373.167969 1.851562 373.167969 2.402344 C 373.167969 2.957031 373.609375 3.410156 374.164062 3.421875 L 387.582031 3.421875 C 388.136719 3.410156 388.578125 2.957031 388.578125 2.402344 C 388.578125 1.851562 388.136719 1.398438 387.582031 1.386719 Z M 387.582031 1.386719 "/>
<path style=" stroke:none;fill-rule:nonzero;fill:rgb(24.705882%,23.921569%,33.72549%);fill-opacity:1;" d="M 387.582031 5.203125 L 374.164062 5.203125 C 373.609375 5.214844 373.167969 5.667969 373.167969 6.21875 C 373.167969 6.773438 373.609375 7.226562 374.164062 7.238281 L 387.582031 7.238281 C 388.136719 7.226562 388.578125 6.773438 388.578125 6.21875 C 388.578125 5.667969 388.136719 5.214844 387.582031 5.203125 Z M 387.582031 5.203125 "/>
<path style=" stroke:none;fill-rule:nonzero;fill:rgb(24.705882%,23.921569%,33.72549%);fill-opacity:1;" d="M 387.582031 9.015625 L 374.164062 9.015625 C 373.609375 9.027344 373.167969 9.476562 373.167969 10.03125 C 373.167969 10.585938 373.609375 11.039062 374.164062 11.050781 L 387.582031 11.050781 C 388.136719 11.039062 388.578125 10.585938 388.578125 10.03125 C 388.578125 9.476562 388.136719 9.027344 387.582031 9.015625 Z M 387.582031 9.015625 "/>
<path style=" stroke:none;fill-rule:nonzero;fill:rgb(24.705882%,23.921569%,33.72549%);fill-opacity:1;" d="M 328.722656 58.175781 L 111.476562 58.175781 C 109.246094 58.175781 107.4375 59.980469 107.4375 62.210938 L 107.4375 164.832031 C 107.4375 167.0625 109.246094 168.871094 111.476562 168.875 L 328.722656 168.875 C 330.949219 168.867188 332.753906 167.0625 332.757812 164.832031 L 332.757812 62.210938 C 332.753906 59.984375 330.949219 58.175781 328.722656 58.175781 Z M 328.722656 58.175781 "/>
<path style=" stroke:none;fill-rule:nonzero;fill:rgb(38.823529%,91.372549%,100%);fill-opacity:1;" d="M 271.339844 107.613281 C 269.113281 107.617188 267.304688 109.421875 267.304688 111.652344 L 267.304688 140.636719 C 267.304688 142.867188 269.109375 144.675781 271.339844 144.679688 L 332.757812 144.679688 L 332.757812 107.613281 Z M 271.339844 107.613281 "/>
<use xlink:href="#surface5" mask="url(#mask0)"/>
<path style=" stroke:none;fill-rule:nonzero;fill:rgb(100%,100%,100%);fill-opacity:1;" d="M 300.164062 127.996094 C 300.164062 131.617188 297.230469 134.554688 293.613281 134.554688 C 289.992188 134.554688 287.058594 131.617188 287.058594 127.996094 C 287.058594 124.375 289.992188 121.441406 293.613281 121.441406 C 297.230469 121.441406 300.164062 124.375 300.164062 127.996094 Z M 300.164062 127.996094 "/>
<path style=" stroke:none;fill-rule:nonzero;fill:rgb(100%,100%,100%);fill-opacity:1;" d="M 430.925781 126.09375 L 312.539062 126.09375 C 311.460938 126.09375 310.585938 125.21875 310.585938 124.140625 C 310.585938 123.0625 311.460938 122.1875 312.539062 122.1875 L 430.925781 122.1875 C 432.003906 122.1875 432.878906 123.0625 432.878906 124.140625 C 432.878906 125.21875 432.003906 126.09375 430.925781 126.09375 Z M 430.925781 126.09375 "/>
<path style=" stroke:none;fill-rule:nonzero;fill:rgb(100%,100%,100%);fill-opacity:1;" d="M 385.960938 133.808594 L 312.539062 133.808594 C 311.460938 133.808594 310.585938 132.933594 310.585938 131.855469 C 310.585938 130.777344 311.460938 129.902344 312.539062 129.902344 L 385.960938 129.902344 C 387.039062 129.902344 387.914062 130.777344 387.914062 131.855469 C 387.914062 132.933594 387.039062 133.808594 385.960938 133.808594 Z M 385.960938 133.808594 "/>
<path style=" stroke:none;fill-rule:nonzero;fill:rgb(100%,71.372549%,71.372549%);fill-opacity:1;" d="M 75.789062 273.257812 L 81.457031 273.257812 L 84.15625 251.371094 L 75.785156 251.371094 Z M 75.789062 273.257812 "/>
<path style=" stroke:none;fill-rule:nonzero;fill:rgb(18.431373%,18.039216%,25.490196%);fill-opacity:1;" d="M 74.339844 271.40625 L 75.9375 271.40625 L 82.167969 268.871094 L 85.507812 271.40625 C 89.4375 271.40625 92.625 274.59375 92.625 278.527344 L 92.625 278.757812 L 74.339844 278.757812 Z M 74.339844 271.40625 "/>
<path style=" stroke:none;fill-rule:nonzero;fill:rgb(100%,71.372549%,71.372549%);fill-opacity:1;" d="M 24.554688 265.882812 L 29.628906 268.410156 L 41.796875 250.027344 L 34.308594 246.292969 Z M 24.554688 265.882812 "/>
<path style=" stroke:none;fill-rule:nonzero;fill:rgb(18.431373%,18.039216%,25.490196%);fill-opacity:1;" d="M 24.085938 263.578125 L 25.511719 264.289062 L 32.21875 264.800781 L 34.078125 268.5625 C 37.597656 270.316406 39.027344 274.59375 37.273438 278.113281 L 37.171875 278.320312 L 20.808594 270.15625 Z M 24.085938 263.578125 "/>
<path style=" stroke:none;fill-rule:nonzero;fill:rgb(18.431373%,18.039216%,25.490196%);fill-opacity:1;" d="M 78.300781 173.859375 L 42.246094 174.800781 L 42.875 192.371094 C 42.875 192.371094 42.246094 197.074219 43.5 198.328125 C 44.753906 199.585938 45.382812 199.585938 44.753906 201.78125 C 44.128906 203.976562 42.507812 224.960938 42.507812 224.960938 C 42.507812 224.960938 27.710938 251.140625 28.335938 251.769531 C 28.964844 252.394531 29.589844 251.769531 28.964844 253.335938 C 28.335938 254.90625 27.710938 254.277344 28.335938 254.90625 C 28.890625 255.503906 29.414062 256.132812 29.902344 256.789062 L 40.125 256.789062 C 40.125 256.789062 40.695312 253.652344 40.695312 253.335938 C 40.695312 253.023438 41.320312 251.140625 41.320312 250.828125 C 41.320312 250.511719 59.175781 231.585938 59.175781 231.585938 L 62.9375 200.210938 L 72.03125 230.957031 C 72.03125 230.957031 72.03125 257.9375 72.65625 258.5625 C 73.285156 259.191406 73.285156 258.878906 72.96875 260.132812 C 72.65625 261.386719 71.402344 261.074219 72.34375 262.015625 C 73.285156 262.957031 73.597656 261.386719 73.285156 262.957031 L 72.96875 264.523438 L 85.015625 264.660156 C 85.015625 264.660156 86.269531 262.015625 85.640625 261.074219 C 85.015625 260.132812 85.050781 260.390625 85.816406 258.847656 C 86.582031 257.308594 86.894531 256.996094 86.582031 256.679688 C 86.269531 256.367188 86.269531 254.699219 86.269531 254.699219 C 86.269531 254.699219 81.75 192.996094 81.75 192.054688 C 81.726562 191.570312 81.8125 191.089844 82.007812 190.644531 L 82.007812 189.367188 L 80.808594 184.839844 Z M 78.300781 173.859375 "/>
<path style=" stroke:none;fill-rule:nonzero;fill:rgb(38.823529%,91.372549%,100%);fill-opacity:1;" d="M 435.324219 119.386719 C 427.683594 119.386719 421.492188 113.191406 421.492188 105.542969 C 421.492188 97.898438 427.683594 91.699219 435.324219 91.699219 C 442.964844 91.699219 449.160156 97.898438 449.160156 105.542969 C 449.160156 113.191406 442.964844 119.386719 435.324219 119.386719 Z M 435.324219 119.386719 "/>
<path style=" stroke:none;fill-rule:nonzero;fill:rgb(100%,100%,100%);fill-opacity:1;" d="M 440.785156 104.179688 L 436.691406 104.179688 L 436.691406 100.082031 C 436.691406 99.328125 436.078125 98.714844 435.324219 98.714844 C 434.570312 98.714844 433.960938 99.328125 433.960938 100.082031 L 433.960938 104.179688 L 429.867188 104.179688 C 429.378906 104.175781 428.925781 104.4375 428.683594 104.859375 C 428.4375 105.285156 428.4375 105.804688 428.683594 106.226562 C 428.925781 106.652344 429.378906 106.910156 429.867188 106.910156 L 433.960938 106.910156 L 433.960938 111.007812 C 433.960938 111.761719 434.570312 112.371094 435.324219 112.371094 C 436.078125 112.371094 436.691406 111.761719 436.691406 111.007812 L 436.691406 106.910156 L 440.785156 106.910156 C 441.539062 106.910156 442.148438 106.296875 442.148438 105.542969 C 442.148438 104.789062 441.539062 104.179688 440.785156 104.179688 Z M 440.785156 104.179688 "/>
<path style=" stroke:none;fill-rule:nonzero;fill:rgb(38.823529%,91.372549%,100%);fill-opacity:1;" d="M 224.191406 144.867188 L 171.628906 144.867188 C 169.398438 144.867188 167.589844 146.675781 167.589844 148.90625 L 167.589844 168.875 L 228.226562 168.875 L 228.226562 148.90625 C 228.222656 146.679688 226.417969 144.871094 224.191406 144.867188 Z M 224.191406 144.867188 "/>
<use xlink:href="#surface8" mask="url(#mask1)"/>
<path style=" stroke:none;fill-rule:nonzero;fill:rgb(100%,100%,100%);fill-opacity:1;" d="M 193.664062 161.070312 C 193.664062 164.691406 190.730469 167.625 187.113281 167.625 C 183.492188 167.625 180.5625 164.691406 180.5625 161.070312 C 180.5625 157.449219 183.492188 154.511719 187.113281 154.511719 C 190.730469 154.511719 193.664062 157.449219 193.664062 161.070312 Z M 193.664062 161.070312 "/>
<path style=" stroke:none;fill-rule:nonzero;fill:rgb(100%,100%,100%);fill-opacity:1;" d="M 213.304688 177.59375 L 182.511719 177.59375 C 181.433594 177.59375 180.5625 176.71875 180.5625 175.640625 C 180.5625 174.5625 181.433594 173.6875 182.511719 173.6875 L 213.304688 173.6875 C 214.378906 173.6875 215.253906 174.5625 215.253906 175.640625 C 215.253906 176.71875 214.378906 177.59375 213.304688 177.59375 Z M 213.304688 177.59375 "/>
<path style=" stroke:none;fill-rule:nonzero;fill:rgb(100%,100%,100%);fill-opacity:1;" d="M 197.371094 185.308594 L 182.511719 185.308594 C 181.433594 185.308594 180.5625 184.433594 180.5625 183.355469 C 180.5625 182.277344 181.433594 181.402344 182.511719 181.402344 L 197.371094 181.402344 C 198.449219 181.402344 199.320312 182.277344 199.320312 183.355469 C 199.320312 184.433594 198.449219 185.308594 197.371094 185.308594 Z M 197.371094 185.308594 "/>
<path style=" stroke:none;fill-rule:nonzero;fill:rgb(38.823529%,91.372549%,100%);fill-opacity:1;" d="M 170.53125 215.058594 C 162.890625 215.058594 156.695312 208.859375 156.695312 201.214844 C 156.695312 193.570312 162.890625 187.371094 170.53125 187.371094 C 178.171875 187.371094 184.363281 193.570312 184.363281 201.214844 C 184.363281 208.859375 178.171875 215.058594 170.53125 215.058594 Z M 170.53125 215.058594 "/>
<path style=" stroke:none;fill-rule:nonzero;fill:rgb(100%,100%,100%);fill-opacity:1;" d="M 175.988281 199.851562 L 171.894531 199.851562 L 171.894531 195.753906 C 171.894531 195 171.285156 194.386719 170.53125 194.386719 C 169.777344 194.386719 169.164062 195 169.164062 195.753906 L 169.164062 199.851562 L 165.070312 199.851562 C 164.582031 199.847656 164.132812 200.109375 163.886719 200.53125 C 163.644531 200.953125 163.644531 201.476562 163.886719 201.898438 C 164.132812 202.320312 164.582031 202.582031 165.070312 202.582031 L 169.164062 202.582031 L 169.164062 206.679688 C 169.164062 207.433594 169.777344 208.042969 170.53125 208.042969 C 171.285156 208.042969 171.894531 207.433594 171.894531 206.679688 L 171.894531 202.582031 L 175.988281 202.582031 C 176.742188 202.582031 177.351562 201.96875 177.351562 201.214844 C 177.351562 200.460938 176.742188 199.851562 175.988281 199.851562 Z M 175.988281 199.851562 "/>
<path style=" stroke:none;fill-rule:nonzero;fill:rgb(38.823529%,91.372549%,100%);fill-opacity:1;" d="M 164.125 114.339844 L 111.5625 114.339844 C 109.332031 114.335938 107.527344 112.527344 107.523438 110.296875 L 107.523438 62.277344 C 107.527344 60.046875 109.332031 58.238281 111.5625 58.238281 L 164.125 58.238281 C 166.355469 58.238281 168.160156 60.046875 168.164062 62.277344 L 168.164062 110.296875 C 168.160156 112.527344 166.355469 114.335938 164.125 114.339844 Z M 164.125 114.339844 "/>
<path style=" stroke:none;fill-rule:nonzero;fill:rgb(38.823529%,91.372549%,100%);fill-opacity:1;" d="M 133.601562 78.449219 C 133.601562 82.070312 130.667969 85.007812 127.050781 85.007812 C 123.429688 85.007812 120.496094 82.070312 120.496094 78.449219 C 120.496094 74.828125 123.429688 71.894531 127.050781 71.894531 C 130.667969 71.894531 133.601562 74.828125 133.601562 78.449219 Z M 133.601562 78.449219 "/>
<path style=" stroke:none;fill-rule:nonzero;fill:rgb(38.823529%,91.372549%,100%);fill-opacity:1;" d="M 153.238281 92.96875 L 122.449219 92.96875 C 121.371094 92.96875 120.496094 92.09375 120.496094 91.015625 C 120.496094 89.9375 121.371094 89.0625 122.449219 89.0625 L 153.238281 89.0625 C 154.316406 89.0625 155.191406 89.9375 155.191406 91.015625 C 155.191406 92.09375 154.316406 92.96875 153.238281 92.96875 Z M 153.238281 92.96875 "/>
<path style=" stroke:none;fill-rule:nonzero;fill:rgb(38.823529%,91.372549%,100%);fill-opacity:1;" d="M 137.308594 100.683594 L 122.449219 100.683594 C 121.371094 100.683594 120.496094 99.808594 120.496094 98.730469 C 120.496094 97.652344 121.371094 96.777344 122.449219 96.777344 L 137.308594 96.777344 C 138.382812 96.777344 139.257812 97.652344 139.257812 98.730469 C 139.257812 99.808594 138.382812 100.683594 137.308594 100.683594 Z M 137.308594 100.683594 "/>
<use xlink:href="#surface11" mask="url(#mask2)"/>
<path style=" stroke:none;fill-rule:nonzero;fill:rgb(100%,100%,100%);fill-opacity:1;" d="M 133.601562 78.449219 C 133.601562 82.070312 130.667969 85.007812 127.050781 85.007812 C 123.429688 85.007812 120.496094 82.070312 120.496094 78.449219 C 120.496094 74.828125 123.429688 71.894531 127.050781 71.894531 C 130.667969 71.894531 133.601562 74.828125 133.601562 78.449219 Z M 133.601562 78.449219 "/>
<path style=" stroke:none;fill-rule:nonzero;fill:rgb(100%,100%,100%);fill-opacity:1;" d="M 153.238281 92.96875 L 122.449219 92.96875 C 121.371094 92.96875 120.496094 92.09375 120.496094 91.015625 C 120.496094 89.9375 121.371094 89.0625 122.449219 89.0625 L 153.238281 89.0625 C 154.316406 89.0625 155.191406 89.9375 155.191406 91.015625 C 155.191406 92.09375 154.316406 92.96875 153.238281 92.96875 Z M 153.238281 92.96875 "/>
<path style=" stroke:none;fill-rule:nonzero;fill:rgb(100%,100%,100%);fill-opacity:1;" d="M 137.308594 100.683594 L 122.449219 100.683594 C 121.371094 100.683594 120.496094 99.808594 120.496094 98.730469 C 120.496094 97.652344 121.371094 96.777344 122.449219 96.777344 L 137.308594 96.777344 C 138.382812 96.777344 139.257812 97.652344 139.257812 98.730469 C 139.257812 99.808594 138.382812 100.683594 137.308594 100.683594 Z M 137.308594 100.683594 "/>
<path style=" stroke:none;fill-rule:nonzero;fill:rgb(100%,39.607843%,51.764706%);fill-opacity:1;" d="M 123.160156 58.078125 C 123.160156 63.890625 118.453125 68.597656 112.648438 68.597656 C 106.839844 68.597656 102.136719 63.890625 102.136719 58.078125 C 102.136719 52.269531 106.839844 47.5625 112.648438 47.5625 C 118.453125 47.5625 123.160156 52.269531 123.160156 58.078125 Z M 123.160156 58.078125 "/>
<path style=" stroke:none;fill-rule:nonzero;fill:rgb(80%,80%,80%);fill-opacity:1;" d="M 141.492188 278.390625 C 141.492188 278.550781 141.429688 278.703125 141.320312 278.8125 C 141.207031 278.925781 141.054688 278.988281 140.898438 278.988281 L 0.59375 278.988281 C 0.265625 278.988281 0 278.722656 0 278.390625 C 0 278.0625 0.265625 277.796875 0.59375 277.796875 L 140.898438 277.796875 C 141.054688 277.796875 141.207031 277.859375 141.320312 277.96875 C 141.429688 278.082031 141.492188 278.234375 141.492188 278.390625 Z M 141.492188 278.390625 "/>
<path style=" stroke:none;fill-rule:nonzero;fill:rgb(100%,71.372549%,71.372549%);fill-opacity:1;" d="M 110.398438 85.941406 C 111.300781 88.457031 110.015625 91.230469 107.519531 92.171875 C 107.253906 92.269531 106.976562 92.34375 106.699219 92.398438 L 103.921875 109.40625 L 97.410156 103.390625 L 101.046875 88.160156 C 100.765625 85.488281 102.679688 83.089844 105.34375 82.769531 C 107.5625 82.515625 109.664062 83.832031 110.398438 85.941406 Z M 110.398438 85.941406 "/>
<path style=" stroke:none;fill-rule:nonzero;fill:rgb(24.705882%,23.921569%,33.72549%);fill-opacity:1;" d="M 62.339844 124.484375 C 62.339844 124.484375 67.394531 117.800781 85.734375 117.984375 L 96.144531 114.199219 L 98.523438 92.375 L 106.851562 94.359375 L 105.664062 121.34375 L 87.816406 131.660156 L 64.421875 136.421875 Z M 62.339844 124.484375 "/>
<path style=" stroke:none;fill-rule:nonzero;fill:rgb(100%,71.372549%,71.372549%);fill-opacity:1;" d="M 70.539062 99.671875 C 70.539062 105.6875 65.667969 110.5625 59.652344 110.5625 C 53.640625 110.5625 48.769531 105.6875 48.769531 99.671875 C 48.769531 93.652344 53.640625 88.777344 59.652344 88.777344 C 65.667969 88.777344 70.539062 93.652344 70.539062 99.671875 Z M 70.539062 99.671875 "/>
<path style=" stroke:none;fill-rule:nonzero;fill:rgb(24.705882%,23.921569%,33.72549%);fill-opacity:1;" d="M 41.230469 182.265625 C 41.210938 182.265625 41.191406 182.261719 41.171875 182.257812 C 40.972656 182.203125 40.8125 182.15625 41.539062 175.882812 L 42.320312 170.921875 L 41.554688 166.539062 L 40.269531 165.253906 L 42.335938 163.1875 L 44.070312 158.257812 L 41.070312 153.8125 L 37.628906 135.621094 C 36.414062 129.167969 39.679688 122.699219 45.59375 119.851562 L 49.578125 118.6875 L 51.027344 116.027344 C 51.855469 114.507812 53.441406 113.554688 55.175781 113.542969 L 62.46875 113.488281 C 63.960938 113.476562 65.371094 114.167969 66.28125 115.347656 L 68.824219 118.660156 L 79.378906 122.246094 L 77.628906 159.976562 C 78.191406 160.445312 78.53125 161.128906 78.566406 161.863281 C 78.597656 162.597656 78.324219 163.308594 77.808594 163.828125 C 77.699219 163.941406 77.613281 164.03125 77.558594 164.089844 C 77.378906 164.34375 77.714844 166.230469 78.125 167.835938 L 78.65625 170.289062 C 78.3125 170.535156 78.085938 170.914062 78.035156 171.332031 C 77.984375 171.75 78.109375 172.171875 78.382812 172.492188 L 79.054688 173.289062 C 79.332031 175.371094 77.875 177.28125 75.796875 177.566406 C 66.152344 178.878906 41.28125 182.265625 41.230469 182.265625 Z M 41.230469 182.265625 "/>
<path style=" stroke:none;fill-rule:nonzero;fill:rgb(18.431373%,18.039216%,25.490196%);fill-opacity:1;" d="M 56.871094 110.03125 C 56.824219 109.925781 56.777344 109.824219 56.730469 109.722656 C 56.746094 109.722656 56.765625 109.722656 56.785156 109.726562 Z M 56.871094 110.03125 "/>
<path style=" stroke:none;fill-rule:nonzero;fill:rgb(18.431373%,18.039216%,25.490196%);fill-opacity:1;" d="M 48.464844 89.273438 C 48.980469 88.785156 49.652344 88.492188 50.363281 88.449219 C 51.066406 88.472656 51.78125 89.109375 51.636719 89.800781 C 54.304688 85.070312 59.980469 82.941406 65.097656 84.746094 C 66.847656 85.367188 68.5625 86.601562 68.964844 88.414062 C 69.003906 88.890625 69.144531 89.351562 69.378906 89.765625 C 69.796875 90.222656 70.441406 90.382812 71.023438 90.183594 L 71.039062 90.179688 C 71.238281 90.109375 71.460938 90.171875 71.597656 90.332031 C 71.734375 90.492188 71.761719 90.71875 71.664062 90.90625 L 71.167969 91.828125 C 71.792969 91.96875 72.441406 91.953125 73.058594 91.789062 C 73.265625 91.734375 73.488281 91.816406 73.613281 91.996094 C 73.734375 92.175781 73.730469 92.414062 73.601562 92.589844 C 71.933594 94.871094 69.289062 96.234375 66.460938 96.261719 C 64.484375 96.25 62.484375 95.566406 60.558594 96.023438 C 59.050781 96.378906 57.785156 97.402344 57.117188 98.800781 C 56.445312 100.199219 56.445312 101.824219 57.113281 103.222656 C 56.519531 102.578125 55.378906 102.730469 54.773438 103.363281 C 54.210938 104.050781 53.957031 104.941406 54.070312 105.820312 C 54.234375 107.15625 54.628906 108.449219 55.242188 109.648438 C 50.449219 109.5 46.261719 106.378906 44.746094 101.828125 C 43.234375 97.273438 44.71875 92.261719 48.464844 89.273438 Z M 48.464844 89.273438 "/>
<path style=" stroke:none;fill-rule:nonzero;fill:rgb(100%,71.372549%,71.372549%);fill-opacity:1;" d="M 45.46875 197.890625 C 43.304688 196.324219 42.792969 193.3125 44.316406 191.121094 C 44.480469 190.890625 44.664062 190.671875 44.863281 190.472656 L 37.519531 174.882812 L 46.292969 176.148438 L 51.921875 190.757812 C 53.664062 192.796875 53.445312 195.863281 51.433594 197.636719 C 49.75 199.105469 47.273438 199.207031 45.46875 197.890625 Z M 45.46875 197.890625 "/>
<path style=" stroke:none;fill-rule:nonzero;fill:rgb(24.705882%,23.921569%,33.72549%);fill-opacity:1;" d="M 43.246094 189.375 L 31.558594 163.085938 L 31.441406 142.324219 L 35.125 131.109375 C 36.132812 128.035156 38.34375 125.5 41.25 124.082031 C 44.15625 122.664062 47.511719 122.480469 50.554688 123.574219 L 50.636719 123.605469 L 50.671875 123.683594 C 50.804688 124.003906 53.898438 131.652344 44.730469 147.386719 L 42.886719 158.15625 L 49.359375 182.835938 Z M 43.246094 189.375 "/>
</g>
</svg>
